<?xml version="1.0" encoding="UTF-8"?>
<svg width="24px" height="24px" viewBox="0 0 24 24" version="1.1" xmlns="http://www.w3.org/2000/svg" xmlns:xlink="http://www.w3.org/1999/xlink">
    <!-- Generator: Sketch 48.2 (47327) - http://www.bohemiancoding.com/sketch -->
    <title>Group</title>
    <desc>Created with Sketch.</desc>
    <defs></defs>
    <g id="Desktop-HD-Copy-3" stroke="none" stroke-width="1" fill="none" fill-rule="evenodd" transform="translate(-597.000000, -873.000000)">
        <g id="Group" transform="translate(597.000000, 873.000000)" fill="#FFFFFF" fill-rule="nonzero">
            <path d="M20.50322,3.48774311 C18.2470581,1.23980537 15.246749,0.00130343217 12.0500832,0 C5.46354774,0 0.102786527,5.3347065 0.100215651,11.891791 C0.0992940163,13.987903 0.649558462,16.0338088 1.69532285,17.8373244 L0,24 L6.33478361,22.3462342 C8.08016578,23.2936846 10.0453336,23.7930922 12.0453295,23.7937681 L12.0501802,23.7937681 C12.0505682,23.7937681 12.0498891,23.7937681 12.0502772,23.7937681 C18.6361335,23.7937681 23.9972343,18.4585305 23.9999992,11.9013012 C24.0011634,8.72353359 22.7593333,5.7355843 20.50322,3.48774311 Z M12.0501317,21.7852756 L12.0461056,21.7852756 C10.263955,21.7845998 8.51590498,21.3080264 6.99093904,20.4074513 L6.62830002,20.1932539 L2.86914596,21.1745935 L3.87256365,17.527011 L3.63638262,17.1529743 C2.64218127,15.5792006 2.11709201,13.7601886 2.11786812,11.8924668 C2.12000243,6.44247902 6.57566983,2.00858897 12.0541578,2.00858897 C14.7070106,2.00940965 17.2008087,3.03897624 19.0760443,4.90737385 C20.9512315,6.77577145 21.9833654,9.25929249 21.9822982,11.9004805 C21.9800669,17.3509028 17.524545,21.7852756 12.0501317,21.7852756 Z" id="Shape"></path>
            <path d="M16.9295882,14.3473946 C16.634367,14.2004558 15.1827707,13.4903711 14.9121552,13.3923165 C14.6415398,13.2943574 14.4446936,13.2453778 14.2478955,13.5392553 C14.0510973,13.8330851 13.4852606,14.494381 13.3130202,14.690347 C13.1408279,14.88617 12.9685395,14.9108267 12.6733663,14.7637449 C12.378145,14.6168061 11.426818,14.3068565 10.2991257,13.3067096 C9.42137613,12.5282346 8.8288712,11.5669566 8.65658287,11.2729838 C8.48439048,10.9791539 8.63826045,10.8202922 8.78608691,10.6738781 C8.91890048,10.5422961 9.0813561,10.331021 9.22899069,10.1595686 C9.37657733,9.98821159 9.42578886,9.8656434 9.52421192,9.66986814 C9.62263499,9.47390211 9.57347142,9.30244972 9.49960616,9.15555866 C9.42578886,9.00861991 8.8353464,7.56365064 8.58933671,6.97575256 C8.34961035,6.40340203 8.1062387,6.48094907 7.92498102,6.47183991 C7.75302845,6.46330306 7.5559425,6.46153846 7.35914433,6.46153846 C7.16234617,6.46153846 6.84242325,6.53503168 6.57185575,6.8288615 C6.30124029,7.12278669 5.53846154,7.8330622 5.53846154,9.27788839 C5.53846154,10.7229054 6.59641355,12.1188473 6.74404815,12.314718 C6.89163478,12.5107317 8.82594537,15.4758327 11.7876546,16.7474419 C12.4920606,17.0499516 13.0420211,17.2305609 13.4707753,17.3658151 C14.1780592,17.5892993 14.8216943,17.5577273 15.3304053,17.4821356 C15.8976809,17.3978641 17.0772228,16.7720032 17.3232325,16.0863367 C17.5692902,15.4005272 17.5692902,14.8126768 17.4954249,14.6902994 C17.4216556,14.5678742 17.2248094,14.494381 16.9295882,14.3473946 Z" id="Shape"></path>
        </g>
    </g>
</svg>