<?xml version="1.0" encoding="UTF-8"?>
<svg width="155px" height="41px" viewBox="0 0 155 41" version="1.1" xmlns="http://www.w3.org/2000/svg" xmlns:xlink="http://www.w3.org/1999/xlink">
    <!-- Generator: Sketch 48.2 (47327) - http://www.bohemiancoding.com/sketch -->
    <title>footer-logos</title>
    <desc>Created with Sketch.</desc>
    <defs></defs>
    <g id="Desktop-HD-Copy-3" stroke="none" stroke-width="1" fill="none" fill-rule="evenodd" transform="translate(-886.000000, -2299.000000)">
        <g id="footer-logos" transform="translate(886.000000, 2299.000000)" fill-rule="nonzero">
            <path d="M16.950372,9.74612094 C18.613916,9.26261462 20.319158,9.00000001 22.014196,9.00000001 C25.957839,9.00000001 28.224887,10.3964674 30.558756,11.9220665 C33.038756,13.5431894 34.928283,15.6455372 36.000772,18.0000001 C36.35113,18.0000883 36.687451,18.0602354 37,18.1707057 L37,15.515625 C37,15.2308532 37.223858,15 37.5,15 C37.776142,15 38,15.2308532 38,15.515625 L38,18.7638935 C38.613749,19.313214 39,20.1115002 39,21 L39,24 C39,25.6261171 37.706227,26.9500573 36.091881,26.9986198 C35.35155,29.1367632 34.363927,31.0489132 32.609162,32.3676484 C30.925726,33.6327785 29.286375,34.5702072 27.4551,35.2619015 C27.110932,36.8454228 26.71896,38.1270156 26.279183,39.10668 C25.587228,40.6481039 24.87403,41.2483289 24.139591,40.9073549 C23.892111,40.7709023 23.713812,40.6108423 23.604693,40.427175 C23.498791,40.2489206 22.991836,39.2636973 22.083828,37.4715052 C21.879351,37.5472258 21.671783,37.6154786 21.461737,37.6758237 C21.401829,37.8254039 21.340978,37.9690226 21.279183,38.10668 C20.587228,39.6481039 19.87403,40.2483289 19.139591,39.9073549 C18.892111,39.7709023 18.713812,39.6108423 18.604693,39.427175 C18.532521,39.305694 18.27408,38.8094186 17.829372,37.9383487 C17.675021,37.9233753 17.523737,37.9055192 17.375868,37.8846133 C17.3439,37.9602834 17.311672,38.0343056 17.279183,38.10668 C16.587228,39.6481039 15.87403,40.2483289 15.139591,39.9073549 C14.892111,39.7709023 14.713812,39.6108423 14.604693,39.427175 C14.507411,39.2634304 14.07171,38.4187435 13.29759,36.8931142 C7.113169,36.3859209 2.263378,34.0530189 2.175173,29.4544656 C2.164302,28.887742 2.072635,27.8792472 2.02642,26.8384929 C0.847447,26.4342087 0,25.3160703 0,24 L0,21 C0,20.1115002 0.386251,19.313214 1,18.7638935 L1,15.515625 C1,15.2308532 1.223858,15 1.5,15 C1.776142,15 2,15.2308532 2,15.515625 L2,18.1707057 C2.267157,18.0762791 2.551683,18.0186202 2.847497,18.003809 C3.825398,12.5158737 4.976913,8.19755509 6.302044,5.04885329 C8.031931,0.93838954 9.814924,-0.662210395 11.651022,0.247053485 C12.269723,0.610927257 12.715471,1.03775391 12.988266,1.52753343 C13.259177,2.01392885 14.579878,4.75345643 16.950369,9.74611618 L16.950372,9.74612094 Z M10.823673,12.636093 C10.601343,12.7850943 10.381503,12.9379198 10.164333,13.094425 C10.376064,12.9348546 10.593526,12.783903 10.823673,12.636093 Z M24.470744,36.1396386 C24.261247,36.3038593 24.042832,36.4592906 23.816702,36.6050685 C24.206462,36.419708 24.49069,36.264038 24.754654,36.0750921 C24.660652,36.0970372 24.566023,36.1185501 24.470744,36.1396386 Z M26.416167,27 C29.131308,27 31.535619,25.137931 30.895688,22.6551724 C30.255756,20.1724138 29.362424,18 27.661237,18 C25.96005,18 22.170125,21.4352478 21.172872,23.8965517 C20.17562,26.3578557 23.701027,27 26.416167,27 Z M13.583833,27 C16.298973,27 19.82438,26.3578557 18.827128,23.8965517 C17.829875,21.4352478 14.03995,18 12.338763,18 C10.637576,18 9.744244,20.1724138 9.104312,22.6551724 C8.464381,25.137931 10.868692,27 13.583833,27 Z" id="Combined-Shape" fill="#D43034"></path>
            <g id="Group" transform="translate(52.000000, 13.000000)" fill="#090909">
                <path d="M0.45568717,19.6971882 C0.269491481,19.6971882 0.146996155,19.6635428 0.0881975168,19.5962509 C0.0293988783,19.528959 0,19.4087968 0,19.2357606 L0,0.778658976 C0,0.605622783 0.0293988783,0.485460562 0.0881975168,0.418168709 C0.146996155,0.350876857 0.269491481,0.317231435 0.45568717,0.317231435 L3.3956044,0.317231435 C3.94439169,0.317231435 4.42702327,0.398941745 4.84351363,0.562364816 C5.26000399,0.725787888 5.6054408,0.937273396 5.87983445,1.19682769 C6.1542281,1.45638198 6.36002025,1.75438428 6.49721707,2.09084355 C6.63441389,2.42730281 6.70301127,2.76856352 6.70301127,3.1146359 L6.70301127,7.75775054 C6.70301127,8.19995415 6.64421352,8.59889272 6.52661624,8.95457823 C6.40901896,9.31026373 6.19342719,9.60345955 5.87983445,9.83417448 C6.19342719,10.0552763 6.40901896,10.3340526 6.52661624,10.6705119 C6.64421352,11.0069712 6.70301127,11.3770708 6.70301127,11.7808219 L6.70301127,16.9142033 C6.70301127,17.2506626 6.63441389,17.5847136 6.49721707,17.9163663 C6.36002025,18.248019 6.15177819,18.5460213 5.87248466,18.8103821 C5.59319113,19.074743 5.2453044,19.2886317 4.82881404,19.4520548 C4.41232369,19.6154779 3.92479229,19.6971882 3.36620522,19.6971882 L0.45568717,19.6971882 Z M2.5430284,10.8291276 L2.5430284,17.591925 L3.35150564,17.591925 C3.60629974,17.591925 3.80474217,17.5174244 3.94683888,17.3684211 C4.08893559,17.2194177 4.15998287,17.0584003 4.15998287,16.8853641 L4.15998287,11.8096611 C4.15998287,11.7039168 4.15018325,11.5933676 4.1305837,11.4780101 C4.11098416,11.3626526 4.07178565,11.2569099 4.01298701,11.1607787 C3.95418837,11.0646474 3.87579137,10.9853404 3.77779363,10.9228551 C3.6797959,10.8603698 3.55730058,10.8291276 3.41030398,10.8291276 L2.5430284,10.8291276 Z M2.5430284,2.42249459 L2.5430284,8.82480173 L3.41030398,8.82480173 C3.55730058,8.82480173 3.6797959,8.79355955 3.77779363,8.73107426 C3.87579137,8.66858897 3.95418837,8.5892819 4.01298701,8.49315068 C4.07178565,8.39701947 4.11098416,8.29127671 4.1305837,8.17591925 C4.15018325,8.06056179 4.15998287,7.95001255 4.15998287,7.8442682 L4.15998287,3.12905552 C4.15998287,2.95601932 4.08893559,2.79500195 3.94683888,2.64599856 C3.80474217,2.49699517 3.60629974,2.42249459 3.35150564,2.42249459 L2.5430284,2.42249459 Z M17.2720137,19.1780822 C17.2720137,19.3703446 17.2328152,19.5049263 17.154417,19.5818313 C17.0760188,19.6587363 16.9437239,19.6971882 16.7575282,19.6971882 L15.2434708,19.6971882 C15.0572751,19.6971882 14.9249802,19.6587363 14.846582,19.5818313 C14.7681838,19.5049263 14.7289853,19.3703446 14.7289853,19.1780822 L14.7289853,1.22566691 C14.7289853,0.956499495 14.8220817,0.737804254 15.0082774,0.569574621 C15.1944731,0.401344989 15.4100649,0.317231435 15.6550592,0.317231435 L16.8310261,0.317231435 C17.0270216,0.317231435 17.1495169,0.348473612 17.1985158,0.410958904 C17.2475146,0.473444196 17.2720137,0.586396683 17.2720137,0.749819755 L17.2720137,19.1780822 Z M28.3849008,10.8435472 L27.8410161,10.8435472 L27.8410161,18.8031723 C27.8410161,19.0531135 27.7479197,19.264599 27.561724,19.4376352 C27.3755283,19.6106714 27.1599365,19.6971882 26.9149422,19.6971882 L25.7536749,19.6971882 C25.5674792,19.6971882 25.4449839,19.6635428 25.3861852,19.5962509 C25.3273866,19.528959 25.2979877,19.4087968 25.2979877,19.2357606 L25.2979877,0.778658976 C25.2979877,0.605622783 25.3273866,0.485460562 25.3861852,0.418168709 C25.4449839,0.350876857 25.5674792,0.317231435 25.7536749,0.317231435 L26.9149422,0.317231435 C27.1599365,0.317231435 27.3755283,0.403748234 27.561724,0.576784427 C27.7479197,0.74982062 27.8410161,0.961306128 27.8410161,1.2112473 L27.8410161,8.79596251 L28.4143,8.79596251 L29.619666,1.2112473 C29.6686649,0.942079885 29.8058597,0.725787888 30.0312545,0.562364816 C30.2566492,0.398941745 30.4869405,0.317231435 30.722135,0.317231435 L31.9862994,0.317231435 C32.1822949,0.317231435 32.2949906,0.350876857 32.3243899,0.418168709 C32.3537892,0.485460562 32.358689,0.600816294 32.3390895,0.764239366 L30.8397317,9.87743331 L32.3390895,19.2501802 C32.358689,19.4136033 32.3537892,19.528959 32.3243899,19.5962509 C32.2949906,19.6635428 32.1822949,19.6971882 31.9862994,19.6971882 L30.722135,19.6971882 C30.6045377,19.6971882 30.4820424,19.675559 30.3546454,19.6322999 C30.2272483,19.5890409 30.1096528,19.5289598 30.0018553,19.4520548 C29.8940578,19.3751498 29.8058611,19.2814233 29.7372627,19.1708724 C29.6686643,19.0603215 29.6294658,18.937756 29.619666,18.8031723 L28.3849008,10.8435472 Z M39.9828743,2.79740447 C39.9828743,2.43210584 40.0588214,2.08123216 40.2107179,1.74477289 C40.3626143,1.40831363 40.5831059,1.11271456 40.8721992,0.857966835 C41.1612925,0.603219106 41.5116292,0.398943331 41.9232196,0.245133381 C42.3348101,0.0913234319 42.8051922,0.0144196107 43.3343799,0.0144196107 C43.8635677,0.0144196107 44.3363996,0.0889201875 44.75289,0.237923576 C45.1693803,0.386926965 45.5221669,0.588799495 45.8112602,0.843547224 C46.1003535,1.09829495 46.3183952,1.39389402 46.4653918,1.73035328 C46.6123883,2.06681255 46.6858855,2.42249272 46.6858855,2.79740447 L46.6858855,17.1881759 C46.6858855,17.5438614 46.6123883,17.8899286 46.4653918,18.2263879 C46.3183952,18.5628472 46.1028034,18.8608495 45.81861,19.1204037 C45.5344165,19.379958 45.1840799,19.5890403 44.7675896,19.7476568 C44.3510992,19.9062733 43.8733674,19.9855804 43.3343799,19.9855804 C42.7855926,19.9855804 42.302961,19.9062733 41.8864707,19.7476568 C41.4699803,19.5890403 41.1220936,19.379958 40.8428001,19.1204037 C40.5635065,18.8608495 40.3503647,18.5628472 40.2033681,18.2263879 C40.0563715,17.8899286 39.9828743,17.5438614 39.9828743,17.1881759 L39.9828743,2.79740447 Z M42.5259027,17.1160779 C42.5259027,17.3083403 42.59695,17.4741642 42.7390467,17.6135544 C42.8811434,17.7529447 43.0893854,17.8226388 43.3637791,17.8226388 C43.6185732,17.8226388 43.8121158,17.745735 43.9444127,17.591925 C44.0767097,17.4381151 44.1428571,17.2795009 44.1428571,17.1160779 L44.1428571,2.88392213 C44.1428571,2.71088594 44.0718099,2.54986857 43.9297131,2.40086518 C43.7876164,2.25186179 43.589174,2.17736121 43.3343799,2.17736121 C43.0795858,2.17736121 42.8811434,2.24945854 42.7390467,2.39365537 C42.59695,2.5378522 42.5259027,2.70127282 42.5259027,2.88392213 L42.5259027,17.1160779 Z M54.6677608,0.778658976 C54.6677608,0.605622783 54.6971597,0.485460562 54.7559583,0.418168709 C54.814757,0.350876857 54.9372523,0.317231435 55.123448,0.317231435 L56.2847153,0.317231435 C56.5297096,0.317231435 56.7453014,0.403748234 56.9314971,0.576784427 C57.1176928,0.74982062 57.2107892,0.961306128 57.2107892,1.2112473 L57.2107892,17.591925 L58.8424433,17.591925 C59.5970258,17.591925 59.9743114,18.0100895 59.9743114,18.8464311 L59.9743114,19.221341 C59.9743114,19.375151 59.9302131,19.4929099 59.8420151,19.5746215 C59.7538172,19.656333 59.6362217,19.6971882 59.4892251,19.6971882 L55.123448,19.6971882 C54.9372523,19.6971882 54.814757,19.6611395 54.7559583,19.5890411 C54.6971597,19.5169427 54.6677608,19.3991837 54.6677608,19.2357606 L54.6677608,0.778658976 Z M74.0859141,19.2501802 C74.1055136,19.4136033 74.0908142,19.528959 74.0418153,19.5962509 C73.9928165,19.6635428 73.8752209,19.6971882 73.6890253,19.6971882 L72.45426,19.6971882 C72.2092657,19.6971882 71.991224,19.6130746 71.8001284,19.444845 C71.6090329,19.2766154 71.5085867,19.0627266 71.4987869,18.8031723 L71.3517911,16.5248738 L69.8671329,16.5248738 L69.7348366,18.8031723 C69.715237,19.0627266 69.6098911,19.2766154 69.4187955,19.444845 C69.2276999,19.6130746 69.014558,19.6971882 68.7793635,19.6971882 L67.5592978,19.6971882 C67.3633024,19.6971882 67.2408071,19.6635428 67.1918082,19.5962509 C67.1428093,19.528959 67.1281099,19.4136033 67.1477094,19.2501802 L68.8528614,0.821917808 C68.872461,0.620042249 68.9337086,0.485460562 69.0366063,0.418168709 C69.1395039,0.350876857 69.2889482,0.317231435 69.4849436,0.317231435 L71.7486799,0.317231435 C71.9544751,0.317231435 72.1063693,0.350876857 72.2043671,0.418168709 C72.3023648,0.485460562 72.3611625,0.620042249 72.3807621,0.821917808 L74.0859141,19.2501802 Z M69.97003,14.5061283 L71.2635935,14.5061283 L70.6168118,3.28767123 L69.97003,14.5061283 Z M82.0530898,19.6971882 C81.8668941,19.6971882 81.7443988,19.6635428 81.6856001,19.5962509 C81.6268015,19.528959 81.5974026,19.4087968 81.5974026,19.2357606 L81.5974026,0.778658976 C81.5974026,0.605622783 81.6268015,0.485460562 81.6856001,0.418168709 C81.7443988,0.350876857 81.8668941,0.317231435 82.0530898,0.317231435 L84.993007,0.317231435 C85.5417943,0.317231435 86.0244259,0.398941745 86.4409162,0.562364816 C86.8574066,0.725787888 87.2028434,0.937273396 87.477237,1.19682769 C87.7516307,1.45638198 87.9574228,1.75438428 88.0946197,2.09084355 C88.2318165,2.42730281 88.3004139,2.76856352 88.3004139,3.1146359 L88.3004139,7.75775054 C88.3004139,8.19995415 88.2416161,8.59889272 88.1240188,8.95457823 C88.0064216,9.31026373 87.7908298,9.60345955 87.477237,9.83417448 C87.7908298,10.0552763 88.0064216,10.3340526 88.1240188,10.6705119 C88.2416161,11.0069712 88.3004139,11.3770708 88.3004139,11.7808219 L88.3004139,16.9142033 C88.3004139,17.2506626 88.2318165,17.5847136 88.0946197,17.9163663 C87.9574228,18.248019 87.7491808,18.5460213 87.4698873,18.8103821 C87.1905937,19.074743 86.842707,19.2886317 86.4262166,19.4520548 C86.0097263,19.6154779 85.5221949,19.6971882 84.9636078,19.6971882 L82.0530898,19.6971882 Z M84.140431,10.8291276 L84.140431,17.591925 L84.9489082,17.591925 C85.2037023,17.591925 85.4021448,17.5174244 85.5442415,17.3684211 C85.6863382,17.2194177 85.7573855,17.0584003 85.7573855,16.8853641 L85.7573855,11.8096611 C85.7573855,11.7039168 85.7475858,11.5933676 85.7279863,11.4780101 C85.7083868,11.3626526 85.6691882,11.2569099 85.6103896,11.1607787 C85.551591,11.0646474 85.473194,10.9853404 85.3751962,10.9228551 C85.2771985,10.8603698 85.1547032,10.8291276 85.0077066,10.8291276 L84.140431,10.8291276 Z M84.140431,2.42249459 L84.140431,8.82480173 L85.0077066,8.82480173 C85.1547032,8.82480173 85.2771985,8.79355955 85.3751962,8.73107426 C85.473194,8.66858897 85.551591,8.5892819 85.6103896,8.49315068 C85.6691882,8.39701947 85.7083868,8.29127671 85.7279863,8.17591925 C85.7475858,8.06056179 85.7573855,7.95001255 85.7573855,7.8442682 L85.7573855,3.12905552 C85.7573855,2.95601932 85.6863382,2.79500195 85.5442415,2.64599856 C85.4021448,2.49699517 85.2037023,2.42249459 84.9489082,2.42249459 L84.140431,2.42249459 Z M99.6484944,20 C99.1291064,20 98.6636242,19.9279027 98.2520337,19.7837058 C97.8404432,19.639509 97.4901066,19.442443 97.2010133,19.1925018 C96.91192,18.9425606 96.6889785,18.6493648 96.5321821,18.3129056 C96.3753857,17.9764463 96.2969887,17.6159596 96.2969887,17.2314348 L96.2969887,13.5832733 C96.2969887,13.3044927 96.4439831,13.1651045 96.7379763,13.1651045 L97.9727415,13.1651045 C98.168737,13.1651045 98.3622796,13.2203792 98.5533752,13.3309301 C98.7444708,13.441481 98.8400171,13.6073048 98.8400171,13.8284066 L98.8400171,17.1304975 C98.8400171,17.3035337 98.9110644,17.4621478 99.0531611,17.6063446 C99.1952578,17.7505415 99.3937003,17.8226388 99.6484944,17.8226388 C99.9032885,17.8226388 100.101731,17.7505415 100.243828,17.6063446 C100.385924,17.4621478 100.456972,17.3035337 100.456972,17.1304975 C100.456972,16.2364771 100.354076,15.4097611 100.14828,14.6503244 C99.9424851,13.8908878 99.6852449,13.1530918 99.376552,12.4369142 C99.0678592,11.7207366 98.7346719,11.0141828 98.3769802,10.3172314 C98.0192884,9.6202801 97.6861012,8.8896938 97.3774083,8.12545061 C97.0687155,7.36120743 96.8114753,6.54410433 96.60568,5.6741168 C96.3998848,4.80412927 96.2969887,3.84042826 96.2969887,2.78298486 C96.2969887,2.39845999 96.3753857,2.03797332 96.5321821,1.70151406 C96.6889785,1.36505479 96.9094701,1.06945573 97.1936635,0.814708003 C97.4778569,0.559960274 97.8257436,0.360490988 98.2373341,0.21629416 C98.6489246,0.0720973324 99.1046072,0 99.6043956,0 C100.113984,0 100.579466,0.0720973324 101.000856,0.21629416 C101.422247,0.360490988 101.779933,0.559960274 102.073926,0.814708003 C102.367919,1.06945573 102.595761,1.36505479 102.757457,1.70151406 C102.919153,2.03797332 103,2.39845999 103,2.78298486 L103,6.63302091 C103,6.90218832 102.853006,7.03677001 102.559012,7.03677001 L101.324247,7.03677001 C101.128252,7.03677001 100.934709,6.98149539 100.743614,6.87094448 C100.552518,6.76039358 100.456972,6.59456972 100.456972,6.37346792 L100.456972,2.88392213 C100.456972,2.71088594 100.385924,2.54986857 100.243828,2.40086518 C100.101731,2.25186179 99.9032885,2.17736121 99.6484944,2.17736121 C99.3839005,2.17736121 99.1830082,2.25426503 99.0458113,2.40807498 C98.9086145,2.56188493 98.8400171,2.72049906 98.8400171,2.88392213 C98.8400171,3.71065061 98.9429132,4.48449531 99.1487084,5.20547945 C99.3545037,5.92646359 99.6117439,6.6306142 99.9204367,7.31795242 C100.22913,8.00529063 100.562317,8.69982826 100.920009,9.40158616 C101.2777,10.1033441 101.610888,10.8459466 101.91958,11.629416 C102.228273,12.4128854 102.485513,13.263634 102.691309,14.1816871 C102.897104,15.0997402 103,16.1163126 103,17.2314348 C103,17.6159596 102.921603,17.9764463 102.764807,18.3129056 C102.60801,18.6493648 102.385069,18.9425606 102.095975,19.1925018 C101.806882,19.442443 101.456546,19.639509 101.044955,19.7837058 C100.633365,19.9279027 100.167882,20 99.6484944,20 Z" id="BIKOLABS"></path>
            </g>
        </g>
    </g>
</svg>