<?xml version="1.0" encoding="UTF-8"?>
<svg width="157px" height="41px" viewBox="0 0 157 41" version="1.1" xmlns="http://www.w3.org/2000/svg" xmlns:xlink="http://www.w3.org/1999/xlink">
    <!-- Generator: Sketch 48.2 (47327) - http://www.bohemiancoding.com/sketch -->
    <title>Group</title>
    <desc>Created with Sketch.</desc>
    <defs></defs>
    <g id="Desktop-HD-Copy-3" stroke="none" stroke-width="1" fill="none" fill-rule="evenodd" transform="translate(-886.000000, -2299.000000)">
        <g id="Group" transform="translate(886.000000, 2299.000000)" fill-rule="nonzero">
            <g id="footer-logos">
                <path d="M16.950372,9.74612094 C18.613916,9.26261462 20.319158,9.00000001 22.014196,9.00000001 C25.957839,9.00000001 28.224887,10.3964674 30.558756,11.9220665 C33.038756,13.5431894 34.928283,15.6455372 36.000772,18.0000001 C36.35113,18.0000883 36.687451,18.0602354 37,18.1707057 L37,15.515625 C37,15.2308532 37.223858,15 37.5,15 C37.776142,15 38,15.2308532 38,15.515625 L38,18.7638935 C38.613749,19.313214 39,20.1115002 39,21 L39,24 C39,25.6261171 37.706227,26.9500573 36.091881,26.9986198 C35.35155,29.1367632 34.363927,31.0489132 32.609162,32.3676484 C30.925726,33.6327785 29.286375,34.5702072 27.4551,35.2619015 C27.110932,36.8454228 26.71896,38.1270156 26.279183,39.10668 C25.587228,40.6481039 24.87403,41.2483289 24.139591,40.9073549 C23.892111,40.7709023 23.713812,40.6108423 23.604693,40.427175 C23.498791,40.2489206 22.991836,39.2636973 22.083828,37.4715052 C21.879351,37.5472258 21.671783,37.6154786 21.461737,37.6758237 C21.401829,37.8254039 21.340978,37.9690226 21.279183,38.10668 C20.587228,39.6481039 19.87403,40.2483289 19.139591,39.9073549 C18.892111,39.7709023 18.713812,39.6108423 18.604693,39.427175 C18.532521,39.305694 18.27408,38.8094186 17.829372,37.9383487 C17.675021,37.9233753 17.523737,37.9055192 17.375868,37.8846133 C17.3439,37.9602834 17.311672,38.0343056 17.279183,38.10668 C16.587228,39.6481039 15.87403,40.2483289 15.139591,39.9073549 C14.892111,39.7709023 14.713812,39.6108423 14.604693,39.427175 C14.507411,39.2634304 14.07171,38.4187435 13.29759,36.8931142 C7.113169,36.3859209 2.263378,34.0530189 2.175173,29.4544656 C2.164302,28.887742 2.072635,27.8792472 2.02642,26.8384929 C0.847447,26.4342087 0,25.3160703 0,24 L0,21 C0,20.1115002 0.386251,19.313214 1,18.7638935 L1,15.515625 C1,15.2308532 1.223858,15 1.5,15 C1.776142,15 2,15.2308532 2,15.515625 L2,18.1707057 C2.267157,18.0762791 2.551683,18.0186202 2.847497,18.003809 C3.825398,12.5158737 4.976913,8.19755509 6.302044,5.04885329 C8.031931,0.93838954 9.814924,-0.662210395 11.651022,0.247053485 C12.269723,0.610927257 12.715471,1.03775391 12.988266,1.52753343 C13.259177,2.01392885 14.579878,4.75345643 16.950369,9.74611618 L16.950372,9.74612094 Z M10.823673,12.636093 C10.601343,12.7850943 10.381503,12.9379198 10.164333,13.094425 C10.376064,12.9348546 10.593526,12.783903 10.823673,12.636093 Z M24.470744,36.1396386 C24.261247,36.3038593 24.042832,36.4592906 23.816702,36.6050685 C24.206462,36.419708 24.49069,36.264038 24.754654,36.0750921 C24.660652,36.0970372 24.566023,36.1185501 24.470744,36.1396386 Z M26.416167,27 C29.131308,27 31.535619,25.137931 30.895688,22.6551724 C30.255756,20.1724138 29.362424,18 27.661237,18 C25.96005,18 22.170125,21.4352478 21.172872,23.8965517 C20.17562,26.3578557 23.701027,27 26.416167,27 Z M13.583833,27 C16.298973,27 19.82438,26.3578557 18.827128,23.8965517 C17.829875,21.4352478 14.03995,18 12.338763,18 C10.637576,18 9.744244,20.1724138 9.104312,22.6551724 C8.464381,25.137931 10.868692,27 13.583833,27 Z" id="Combined-Shape" fill="#D43034"></path>
                <path d="M54.4758772,33 C54.2814318,33 54.1535091,32.9670142 54.0921053,32.9010416 C54.0307014,32.835069 54,32.7172627 54,32.547619 L54,14.452381 C54,14.2827372 54.0307014,14.1649309 54.0921053,14.0989583 C54.1535091,14.0329858 54.2814318,14 54.4758772,14 L57.5460526,14 C58.1191549,14 58.6231703,14.0801083 59.058114,14.2403274 C59.4930577,14.4005464 59.8537997,14.6078856 60.1403509,14.8623512 C60.426902,15.1168168 60.6418122,15.4089765 60.7850877,15.7388393 C60.9283633,16.068702 61,16.4032721 61,16.7425595 L61,21.2946428 C61,21.7281768 60.9385971,22.1192939 60.8157895,22.4680059 C60.6929818,22.816718 60.4678379,23.1041655 60.1403509,23.3303571 C60.4678379,23.5471241 60.6929818,23.8204348 60.8157895,24.1502976 C60.9385971,24.4801604 61,24.843004 61,25.2388393 L61,30.2715773 C61,30.6014401 60.9283633,30.9289419 60.7850877,31.2540923 C60.6418122,31.5792427 60.4243436,31.8714025 60.1326754,32.1305803 C59.8410073,32.3897582 59.4777069,32.5994535 59.0427632,32.7596726 C58.6078195,32.9198917 58.0986871,33 57.5153509,33 L54.4758772,33 Z M57,25 L57,32 L58,32 C58.3151531,32 58.5606052,31.9228863 58.7363636,31.7686568 C58.9121221,31.6144271 59,31.4477621 59,31.2686567 L59,26.0149253 C59,25.9054721 58.9878789,25.7910454 58.9636364,25.6716418 C58.9393938,25.5522382 58.8909095,25.4427866 58.8181818,25.3432836 C58.7454542,25.2437806 58.6484855,25.1616919 58.5272727,25.097015 C58.40606,25.032338 58.2545464,25 58.0727273,25 L57,25 Z M57,16 L57,22 L58.0727273,22 C58.2545464,22 58.40606,21.970721 58.5272727,21.9121622 C58.6484855,21.8536033 58.7454542,21.7792797 58.8181818,21.6891892 C58.8909095,21.5990987 58.9393938,21.5000005 58.9636364,21.3918919 C58.9878789,21.2837832 59,21.1801807 59,21.0810811 L59,16.6621622 C59,16.4999992 58.9121221,16.3490998 58.7363636,16.2094595 C58.5606052,16.0698191 58.3151531,16 58,16 L57,16 Z M72,32.4910714 C72,32.6795644 71.9537577,32.8115075 71.8612717,32.8869047 C71.7687856,32.962302 71.6127179,33 71.3930636,33 L69.6069364,33 C69.3872821,33 69.2312144,32.962302 69.1387283,32.8869047 C69.0462423,32.8115075 69,32.6795644 69,32.4910714 L69,14.890625 C69,14.6267348 69.1098254,14.4123272 69.3294797,14.2473958 C69.549134,14.0824645 69.8034668,14 70.0924855,14 L71.4797688,14 C71.7109838,14 71.855491,14.0306297 71.9132948,14.0918899 C71.9710985,14.1531501 72,14.2638881 72,14.4241071 L72,32.4910714 Z M82.0637765,24.3199404 L81.5239683,24.3199404 L81.5239683,32.1235119 C81.5239683,32.3685528 81.4315696,32.575892 81.2467695,32.7455357 C81.0619693,32.9151794 80.8479934,33 80.6048354,33 L79.4522718,33 C79.2674716,33 79.1458945,32.9670142 79.0875365,32.9010416 C79.0291786,32.835069 79,32.7172627 79,32.547619 L79,14.452381 C79,14.2827372 79.0291786,14.1649309 79.0875365,14.0989583 C79.1458945,14.0329858 79.2674716,14 79.4522718,14 L80.6048354,14 C80.8479934,14 81.0619693,14.0848206 81.2467695,14.2544643 C81.4315696,14.424108 81.5239683,14.6314472 81.5239683,14.8764881 L81.5239683,22.3125 L82.0929554,22.3125 L83.2892871,14.8764881 C83.3379188,14.6125979 83.4740853,14.4005464 83.6977907,14.2403274 C83.9214961,14.0801083 84.1500614,14 84.3834931,14 L85.6381825,14 C85.832709,14 85.94456,14.0329858 85.973739,14.0989583 C86.0029179,14.1649309 86.007781,14.278025 85.9883284,14.438244 L84.5002084,23.3727678 L85.9883284,32.5617559 C86.007781,32.721975 86.0029179,32.835069 85.973739,32.9010416 C85.94456,32.9670142 85.832709,33 85.6381825,33 L84.3834931,33 C84.2667772,33 84.1452,32.9787949 84.0187578,32.9363839 C83.8923156,32.893973 83.7756014,32.8350698 83.6686119,32.7596726 C83.5616223,32.6842754 83.4740867,32.5923864 83.4060024,32.484003 C83.3379182,32.3756195 83.2990135,32.255457 83.2892871,32.1235119 L82.0637765,24.3199404 Z M94,16.7870036 C94,16.4211775 94.0793121,16.0697971 94.2379386,15.732852 C94.3965651,15.3959069 94.6268259,15.0998809 94.928728,14.8447653 C95.2306301,14.5896497 95.5964891,14.385079 96.0263157,14.2310469 C96.4561425,14.0770149 96.9473657,14 97.5,14 C98.0526344,14 98.546416,14.0746082 98.9813597,14.2238267 C99.4163033,14.3730453 99.7847208,14.5752093 100.086623,14.8303249 C100.388525,15.0854405 100.616227,15.3814664 100.769737,15.7184116 C100.923246,16.0553567 101,16.4115505 101,16.7870036 L101,31.1985559 C101,31.5547551 100.923246,31.901322 100.769737,32.2382672 C100.616227,32.5752123 100.391083,32.8736449 100.094298,33.1335739 C99.7975131,33.3935031 99.4316542,33.6028873 98.9967106,33.7617328 C98.5617669,33.9205784 98.0628683,34 97.5,34 C96.9268977,34 96.4228823,33.9205784 95.9879386,33.7617328 C95.5529949,33.6028873 95.1896944,33.3935031 94.8980263,33.1335739 C94.6063581,32.8736449 94.3837727,32.5752123 94.2302632,32.2382672 C94.0767536,31.901322 94,31.5547551 94,31.1985559 L94,16.7870036 Z M97,31.2774194 C97,31.4740409 97.0878779,31.6436245 97.2636364,31.7861751 C97.4393948,31.9287257 97.696968,32 98.0363637,32 C98.3515168,32 98.5909083,31.9213526 98.7545455,31.7640553 C98.9181827,31.6067581 99,31.4445476 99,31.2774194 L99,16.7225806 C99,16.5456212 98.9121222,16.3809531 98.7363636,16.2285714 C98.5606052,16.0761897 98.3151531,16 98,16 C97.6848469,16 97.4393948,16.073732 97.2636364,16.2211982 C97.0878779,16.3686643 97,16.5357902 97,16.7225806 L97,31.2774194 Z M109,14.452381 C109,14.2827372 109.027701,14.1649309 109.083102,14.0989583 C109.138504,14.0329858 109.253923,14 109.429363,14 L110.523546,14 C110.754387,14 110.957525,14.0848206 111.132964,14.2544643 C111.308404,14.424108 111.396122,14.6314472 111.396122,14.8764881 L111.396122,30.9360119 L112.933518,30.9360119 C113.64451,30.9360119 114,31.345978 114,32.1659226 L114,32.5334821 C114,32.6842766 113.958449,32.7997267 113.875346,32.8798363 C113.792243,32.9599458 113.681441,33 113.542936,33 L109.429363,33 C109.253923,33 109.138504,32.9646581 109.083102,32.8939732 C109.027701,32.8232883 109,32.7078381 109,32.547619 L109,14.452381 Z M127.991546,32.5617559 C128.011272,32.721975 127.996478,32.835069 127.947162,32.9010416 C127.897846,32.9670142 127.77949,33 127.592089,33 L126.349336,33 C126.102756,33 125.883304,32.9175355 125.690972,32.7526042 C125.49864,32.5876728 125.397544,32.3779774 125.387681,32.1235119 L125.239734,29.8898809 L123.745471,29.8898809 L123.612319,32.1235119 C123.592592,32.3779774 123.486565,32.5876728 123.294233,32.7526042 C123.101901,32.9175355 122.88738,33 122.650664,33 L121.422705,33 C121.225442,33 121.102154,32.9670142 121.052838,32.9010416 C121.003522,32.835069 120.988728,32.721975 121.008454,32.5617559 L122.724638,14.4947917 C122.744364,14.296874 122.806008,14.1649309 122.909571,14.0989583 C123.013135,14.0329858 123.163546,14 123.360809,14 L125.639191,14 C125.846317,14 125.999194,14.0329858 126.097826,14.0989583 C126.196458,14.1649309 126.255636,14.296874 126.275362,14.4947917 L127.991546,32.5617559 Z M124,28 L125,28 L124.5,17 L124,28 Z M136.475877,33 C136.281432,33 136.153509,32.9670142 136.092105,32.9010416 C136.030701,32.835069 136,32.7172627 136,32.547619 L136,14.452381 C136,14.2827372 136.030701,14.1649309 136.092105,14.0989583 C136.153509,14.0329858 136.281432,14 136.475877,14 L139.546053,14 C140.119155,14 140.62317,14.0801083 141.058114,14.2403274 C141.493058,14.4005464 141.8538,14.6078856 142.140351,14.8623512 C142.426902,15.1168168 142.641812,15.4089765 142.785088,15.7388393 C142.928363,16.068702 143,16.4032721 143,16.7425595 L143,21.2946428 C143,21.7281768 142.938597,22.1192939 142.815789,22.4680059 C142.692982,22.816718 142.467838,23.1041655 142.140351,23.3303571 C142.467838,23.5471241 142.692982,23.8204348 142.815789,24.1502976 C142.938597,24.4801604 143,24.843004 143,25.2388393 L143,30.2715773 C143,30.6014401 142.928363,30.9289419 142.785088,31.2540923 C142.641812,31.5792427 142.424344,31.8714025 142.132675,32.1305803 C141.841007,32.3897582 141.477707,32.5994535 141.042763,32.7596726 C140.607819,32.9198917 140.098687,33 139.515351,33 L136.475877,33 Z M138,25 L138,32 L139,32 C139.315153,32 139.560605,31.9228863 139.736364,31.7686568 C139.912122,31.6144271 140,31.4477621 140,31.2686567 L140,26.0149253 C140,25.9054721 139.987879,25.7910454 139.963636,25.6716418 C139.939394,25.5522382 139.890909,25.4427866 139.818182,25.3432836 C139.745454,25.2437806 139.648485,25.1616919 139.527273,25.097015 C139.40606,25.032338 139.254546,25 139.072727,25 L138,25 Z M138,16 L138,22 L139.072727,22 C139.254546,22 139.40606,21.970721 139.527273,21.9121622 C139.648485,21.8536033 139.745454,21.7792797 139.818182,21.6891892 C139.890909,21.5990987 139.939394,21.5000005 139.963636,21.3918919 C139.987879,21.2837832 140,21.1801807 140,21.0810811 L140,16.6621622 C140,16.4999992 139.912122,16.3490998 139.736364,16.2094595 C139.560605,16.0698191 139.315153,16 139,16 L138,16 Z M153.5,34 C152.9576,34 152.471493,33.9279027 152.041667,33.7837058 C151.61184,33.639509 151.245981,33.442443 150.944079,33.1925018 C150.642177,32.9425606 150.409358,32.6493648 150.245614,32.3129056 C150.081871,31.9764463 150,31.6159596 150,31.2314348 L150,27.5832733 C150,27.3044927 150.153507,27.1651045 150.460526,27.1651045 L151.75,27.1651045 C151.954679,27.1651045 152.156797,27.2203792 152.35636,27.3309301 C152.555922,27.441481 152.655702,27.6073048 152.655702,27.8284066 L152.655702,31.1304975 C152.655702,31.3035337 152.729897,31.4621478 152.878289,31.6063446 C153.026682,31.7505415 153.233917,31.8226388 153.5,31.8226388 C153.766083,31.8226388 153.973318,31.7505415 154.121711,31.6063446 C154.270103,31.4621478 154.344299,31.3035337 154.344299,31.1304975 C154.344299,30.2364771 154.236844,29.4097611 154.02193,28.6503244 C153.807017,27.8908878 153.538379,27.1530918 153.216009,26.4369142 C152.893639,25.7207366 152.545689,25.0141828 152.172149,24.3172314 C151.798609,23.6202801 151.45066,22.8896938 151.128289,22.1254506 C150.80592,21.3612074 150.537282,20.5441043 150.322368,19.6741168 C150.107455,18.8041293 150,17.8404283 150,16.7829849 C150,16.39846 150.081871,16.0379733 150.245614,15.7015141 C150.409358,15.3650548 150.639618,15.0694557 150.936404,14.814708 C151.233189,14.5599603 151.596489,14.360491 152.026316,14.2162942 C152.456143,14.0720973 152.932015,14 153.453947,14 C153.986114,14 154.47222,14.0720973 154.91228,14.2162942 C155.352342,14.360491 155.725876,14.5599603 156.032895,14.814708 C156.339914,15.0694557 156.57785,15.3650548 156.746711,15.7015141 C156.915571,16.0379733 157,16.39846 157,16.7829849 L157,20.6330209 C157,20.9021883 156.846493,21.03677 156.539473,21.03677 L155.25,21.03677 C155.045321,21.03677 154.843203,20.9814954 154.643641,20.8709445 C154.444078,20.7603936 154.344299,20.5945697 154.344299,20.3734679 L154.344299,16.8839221 C154.344299,16.7108859 154.270103,16.5498686 154.121711,16.4008652 C153.973318,16.2518618 153.766083,16.1773612 153.5,16.1773612 C153.223683,16.1773612 153.01389,16.254265 152.870614,16.408075 C152.727338,16.5618849 152.655702,16.7204991 152.655702,16.8839221 C152.655702,17.7106506 152.763157,18.4844953 152.97807,19.2054794 C153.192984,19.9264636 153.461621,20.6306142 153.783991,21.3179524 C154.106362,22.0052906 154.454311,22.6998283 154.827851,23.4015862 C155.20139,24.1033441 155.549341,24.8459466 155.87171,25.629416 C156.19408,26.4128854 156.462718,27.263634 156.677632,28.1816871 C156.892545,29.0997402 157,30.1163126 157,31.2314348 C157,31.6159596 156.918129,31.9764463 156.754386,32.3129056 C156.590642,32.6493648 156.357823,32.9425606 156.055921,33.1925018 C155.754019,33.442443 155.388161,33.639509 154.958333,33.7837058 C154.528507,33.9279027 154.0424,34 153.5,34 Z" id="BIKOLABS" fill="#090909"></path>
            </g>
        </g>
    </g>
</svg>