<?xml version="1.0" encoding="UTF-8"?>
<svg width="84px" height="30px" viewBox="0 0 84 30" version="1.1" xmlns="http://www.w3.org/2000/svg" xmlns:xlink="http://www.w3.org/1999/xlink">
    <!-- Generator: Sketch 48.2 (47327) - http://www.bohemiancoding.com/sketch -->
    <title>Page 1</title>
    <desc>Created with Sketch.</desc>
    <defs>
        <polygon id="path-1" points="0 0 84 0 84 30 0 30"></polygon>
    </defs>
    <g id="Desktop-HD-Copy-3" stroke="none" stroke-width="1" fill="none" fill-rule="evenodd" transform="translate(-21.000000, -24.000000)">
        <g id="Page-1" transform="translate(21.000000, 24.000000)">
            <mask id="mask-2" fill="white">
                <use xlink:href="#path-1"></use>
            </mask>
            <g id="Clip-2"></g>
            <path d="M32.4989442,8.96936592 C33.5706412,10.3502988 34.1825358,11.8268732 34.9404794,13.3758653 C35.2940186,13.1598605 35.7754764,9.27327104 35.8835023,8.65472298 C36.2209257,6.72216608 37.4200377,1.55727728 39.9731241,1.55727728 C41.3313792,1.55727728 42.2464513,2.90824418 42.6944186,4.02747406 C43.3123566,5.57197134 43.7061851,7.09898845 43.9924914,8.72464363 C44.1465982,9.60164839 44.4291273,11.5516855 44.6567622,12.3412894 C46.5717659,11.4532971 50.2506881,9.45506474 50.3141438,9.42035413 C51.5344078,8.75311133 54.1252655,9.589662 52.8168685,11.9022876 C51.7907489,13.7164788 47.3216516,17.8370527 47.3216516,18.3225018 C47.3216516,18.6006861 51.2319858,20.7986918 51.7887344,20.911314 C51.8753565,20.7657292 52.0027716,20.6054111 52.0642129,20.4483394 C52.5436563,19.2202331 52.7592043,18.0478135 53.3987979,16.8391851 C55.6799311,12.5308243 61.2690726,7.34396046 66.5008978,7.48405148 C68.1139831,7.52725245 69.6364173,7.95351872 71.0112917,8.66521108 C70.7433674,7.76498267 70.7463891,6.7796009 71.1354333,5.7742418 C72.5289415,2.17307846 77.8010561,0.444290318 81.1146042,1.84170451 C83.4732944,2.8363258 84.6331243,5.05306021 83.6485531,7.59617424 C82.4396205,10.7191303 78.7780731,13.3156836 75.4876914,12.6566815 C77.672382,15.7953697 78.5330634,19.8762386 77.2342352,23.4734065 C75.3847017,28.5958435 68.3154299,30 63.4688717,30 C62.0446428,30 57.0560646,29.0785457 56.9112747,29.0915309 C54.2436155,29.3282623 52.7408223,29.5712366 50.0296002,28.8810198 L45.1485442,27.0098932 C44.6303223,26.8747965 44.010118,27.9291001 43.6719392,28.2340041 C41.415735,30.2686951 37.8909196,29.2960489 35.6367299,27.9193611 C33.0597217,29.5472638 28.5417736,30.1872875 25.9723197,28.165332 C25.5165463,27.8067389 24.501758,26.2994494 24.3549537,26.2412655 C18.9017888,29.6691255 10.7192716,30.7009545 4.40013727,29.1080122 C3.42160944,29.093279 1.26058888,27.587238 0.859457943,26.7089847 C-0.238678927,24.303964 -0.104213188,21.9778537 0.275514031,19.3490868 C0.689990823,16.4808418 1.25706357,13.6013595 1.75690344,10.7451008 C2.13688247,8.57156735 3.57974517,1.48760635 6.33906272,1.48760635 C9.81502726,1.48760635 10.0174813,8.40275891 11.0984952,8.82952461 C12.0596482,8.5363573 13.9421686,8.20023874 14.9415965,8.20023874 C19.5499439,8.20023874 22.6101726,10.7173822 25.5293885,13.8787946 C25.6185287,13.9751852 25.7363751,14.0578414 25.8355877,14.1437439 C26.0775756,13.9319843 27.7662034,10.1200601 28.5503351,9.0742469 L28.4289634,8.77333837 C23.506359,6.35183634 26.9062774,-1.68779016 32.4762814,0.318183426 C34.1074969,0.905766627 35.1781867,2.58960578 35.1781867,4.28418274 C35.1784385,7.10073647 32.5389818,8.59354241 32.4989442,8.96936592 M17.3038121,14.9593184 C15.6715894,14.9593184 7.06099769,22.1851185 15.8934327,22.1851185 C22.9337465,22.1851185 18.9272215,14.9593184 17.3038121,14.9593184 M66.6771638,15.315664 C65.1980407,15.315664 57.9479703,22.4480701 65.4433021,22.4480701 C71.5886886,22.4480701 68.0306345,15.315664 66.6771638,15.315664 M78.3693879,6.76786422 C78.8682205,6.42775019 79.3924858,6.09412879 79.7923577,5.67760147 C80.1081256,5.33523999 80.3332424,4.91946182 80.2622324,4.52990389 C80.108881,3.69260408 78.9931175,3.49857427 77.9977185,3.69610011 C77.3676937,3.82120813 76.7585689,4.10413706 76.2859244,4.48820122 C76.0922836,4.64951815 75.8993983,4.8410508 75.8243594,5.05006361 C75.7251468,5.32525132 75.9638613,5.48506996 76.3035509,5.40441149 C76.5621583,5.34323092 76.8041462,5.19439981 76.9894773,5.03208401 C77.2390195,4.81557971 77.4633809,4.57135685 77.8330358,4.5014362 C78.0881178,4.45324089 78.308702,4.525409 78.2998887,4.74091444 C78.2920827,4.92870133 78.1130468,5.08477422 77.9377881,5.21637488 C77.791991,5.32575075 77.6411577,5.43038202 77.489569,5.53426413 C76.9632892,5.90734076 76.441542,6.29614953 76.0386484,6.75512867 C75.8510511,6.97562845 75.7085275,7.2123598 75.6135957,7.45858038 C75.510606,7.73826299 75.4675467,8.02918285 75.5294916,8.29837737 C75.61838,8.68119294 75.9754445,8.93290729 76.475788,8.9586281 C77.3951408,8.98459863 78.3353937,8.91442826 79.2743876,8.78357676 C79.769695,8.7046663 80.2846433,8.42523341 80.3269472,7.99696941 C80.3732799,7.5339948 79.8293736,7.37717277 79.3144252,7.4348573 C78.6237145,7.52375642 77.9342628,7.60041942 77.2458184,7.66234914 C77.5288511,7.31424418 77.9753076,7.03680902 78.3693879,6.76786422" id="Fill-1" fill="#FFFFFF" mask="url(#mask-2)"></path>
        </g>
    </g>
</svg>