<?xml version="1.0" encoding="UTF-8"?>
<svg width="29px" height="24px" viewBox="0 0 29 24" version="1.1" xmlns="http://www.w3.org/2000/svg" xmlns:xlink="http://www.w3.org/1999/xlink">
    <!-- Generator: Sketch 48.2 (47327) - http://www.bohemiancoding.com/sketch -->
    <title>twitter-logo-silhouette (1)</title>
    <desc>Created with Sketch.</desc>
    <defs></defs>
    <g id="Desktop-HD-Copy-3" stroke="none" stroke-width="1" fill="none" fill-rule="evenodd" transform="translate(-511.000000, -872.000000)">
        <g id="twitter-logo-silhouette-(1)" transform="translate(511.000000, 872.000000)" fill="#FFFFFF" fill-rule="nonzero">
            <path d="M28.8,2.75499448 C27.7399983,3.22250557 26.6026317,3.53956625 25.407618,3.68111705 C26.6278082,2.95383073 27.5618333,1.80025261 28.0045163,0.429898488 C26.8599498,1.10341236 25.5965595,1.59246991 24.2503926,1.8575849 C23.1724143,0.712953245 21.6390942,0 19.9383855,0 C16.6756037,0 14.0300935,2.63321021 14.0300935,5.87904216 C14.0300935,6.33938671 14.0822818,6.78900488 14.183082,7.21895021 C9.27361515,6.97350806 4.92024333,4.63229907 2.00659151,1.07474622 C1.49727303,1.94175657 1.20753138,2.95200397 1.20753138,4.03040371 C1.20753138,6.07071187 2.25134486,7.87096448 3.83506509,8.92421109 C2.86682821,8.8919851 1.95619143,8.6268701 1.1589666,8.18619839 L1.1589666,8.25964368 C1.1589666,11.1078031 3.19619346,13.4848448 5.89746846,14.025848 C5.40255,14.1584055 4.8806668,14.2318508 4.34076003,14.2318508 C3.95925353,14.2318508 3.59031175,14.1942382 3.22856998,14.1225728 C3.9808065,16.460222 6.1620336,18.1601431 8.74636723,18.206749 C6.72532864,19.7831059 4.17699506,20.7199548 1.40913171,20.7199548 C0.932236817,20.7199548 0.462494873,20.6912887 0,20.639343 C2.61492192,22.3106448 5.71935052,23.2851064 9.05592068,23.2851064 C19.9240796,23.2851064 25.8647952,14.3250158 25.8647952,6.5543828 L25.8449834,5.79309056 C27.0057382,4.96903259 28.0099281,3.9336789 28.8,2.75499448 Z" id="Shape"></path>
        </g>
    </g>
</svg>